<svg xmlns="http://www.w3.org/2000/svg" xmlns:xlink="http://www.w3.org/1999/xlink" width="500" zoomAndPan="magnify" viewBox="0 0 375 374.999991" height="500" preserveAspectRatio="xMidYMid meet" version="1.0"><defs><g/></defs><rect x="-37.5" width="450" fill="#ffffff" y="-37.499999" height="449.999989" fill-opacity="1"/><rect x="-37.5" width="450" fill="#137d4a" y="-37.499999" height="449.999989" fill-opacity="1"/><g fill="#ffffff" fill-opacity="1"><g transform="translate(83.34375, 302.649068)"><g><path d="M 169.125 2.46875 C 162.125 2.46875 155.226562 -0.359375 148.4375 -6.015625 C 141.644531 -11.671875 135.113281 -18.921875 128.84375 -27.765625 C 122.570312 -36.617188 116.503906 -46.035156 110.640625 -56.015625 C 104.773438 -65.992188 99.21875 -75.40625 93.96875 -84.25 C 88.726562 -93.09375 83.789062 -100.34375 79.15625 -106 C 74.53125 -111.664062 70.257812 -114.5 66.34375 -114.5 C 59.96875 -114.5 56.578125 -106.164062 56.171875 -89.5 C 56.171875 -81.476562 56.53125 -72.523438 57.25 -62.640625 C 57.96875 -52.765625 58.789062 -43.09375 59.71875 -33.625 C 60.644531 -24.164062 61.414062 -16.144531 62.03125 -9.5625 C 62.4375 -6.894531 61.765625 -4.6875 60.015625 -2.9375 C 58.273438 -1.1875 56.269531 -0.101562 54 0.3125 C 51.332031 0.71875 47.941406 0.972656 43.828125 1.078125 C 39.710938 1.179688 36.726562 1.234375 34.875 1.234375 C 32.8125 1.234375 30.1875 1.179688 27 1.078125 C 23.8125 0.972656 20.367188 0.613281 16.671875 0 C 14.609375 -0.414062 12.753906 -1.34375 11.109375 -2.78125 C 9.460938 -4.21875 8.640625 -6.171875 8.640625 -8.640625 C 8.640625 -26.535156 8.789062 -44.789062 9.09375 -63.40625 C 9.40625 -82.03125 9.867188 -100.238281 10.484375 -118.03125 C 11.109375 -135.832031 11.832031 -152.445312 12.65625 -167.875 C 13.476562 -183.3125 14.40625 -196.6875 15.4375 -208 C 16.050781 -212.320312 18.617188 -215 23.140625 -216.03125 C 25.816406 -216.644531 28.59375 -217.003906 31.46875 -217.109375 C 34.351562 -217.210938 36.722656 -217.265625 38.578125 -217.265625 C 40.429688 -217.265625 42.640625 -217.210938 45.203125 -217.109375 C 47.773438 -217.003906 51.019531 -216.644531 54.9375 -216.03125 C 61.925781 -215.207031 67.785156 -211.601562 72.515625 -205.21875 C 76.640625 -197.40625 81.476562 -188.660156 87.03125 -178.984375 C 92.582031 -169.316406 98.34375 -159.597656 104.3125 -149.828125 C 110.28125 -140.054688 116.144531 -131.054688 121.90625 -122.828125 C 127.664062 -114.597656 132.859375 -107.960938 137.484375 -102.921875 C 142.109375 -97.878906 145.863281 -95.359375 148.75 -95.359375 C 152.25 -95.359375 154.664062 -98.132812 156 -103.6875 C 157.34375 -109.25 157.859375 -116.453125 157.546875 -125.296875 C 157.234375 -134.140625 156.40625 -143.601562 155.0625 -153.6875 C 153.726562 -163.769531 152.289062 -173.4375 150.75 -182.6875 C 149.207031 -191.945312 147.921875 -199.664062 146.890625 -205.84375 C 146.484375 -208.71875 147.050781 -211.03125 148.59375 -212.78125 C 150.132812 -214.53125 152.242188 -215.710938 154.921875 -216.328125 C 157.804688 -216.742188 160.6875 -217.003906 163.5625 -217.109375 C 166.445312 -217.210938 169.222656 -217.265625 171.890625 -217.265625 C 173.953125 -217.265625 176.113281 -217.160156 178.375 -216.953125 C 180.632812 -216.742188 183.207031 -216.4375 186.09375 -216.03125 C 191.03125 -215 193.601562 -212.320312 193.8125 -208 C 195.65625 -188.039062 197.144531 -164.378906 198.28125 -137.015625 C 199.414062 -109.660156 199.878906 -79.519531 199.671875 -46.59375 C 199.671875 -28.289062 196.84375 -15.535156 191.1875 -8.328125 C 185.53125 -1.128906 178.175781 2.46875 169.125 2.46875 Z M 169.125 2.46875 "/></g></g></g></svg>