<svg xmlns="http://www.w3.org/2000/svg" xmlns:xlink="http://www.w3.org/1999/xlink" width="500" zoomAndPan="magnify" viewBox="0 0 375 374.999991" height="500" preserveAspectRatio="xMidYMid meet" version="1.0"><defs><g/></defs><rect x="-37.5" width="450" fill="#ffffff" y="-37.499999" height="449.999989" fill-opacity="1"/><rect x="-37.5" width="450" fill="#137d4a" y="-37.499999" height="449.999989" fill-opacity="1"/><g fill="#ffffff" fill-opacity="1"><g transform="translate(71.534212, 189.602258)"><g><path d="M 37.359375 0.546875 C 35.816406 0.546875 34.296875 -0.078125 32.796875 -1.328125 C 31.296875 -2.578125 29.847656 -4.175781 28.453125 -6.125 C 27.066406 -8.082031 25.726562 -10.160156 24.4375 -12.359375 C 23.144531 -14.566406 21.914062 -16.648438 20.75 -18.609375 C 19.59375 -20.566406 18.503906 -22.171875 17.484375 -23.421875 C 16.460938 -24.671875 15.519531 -25.296875 14.65625 -25.296875 C 13.25 -25.296875 12.5 -23.453125 12.40625 -19.765625 C 12.40625 -17.992188 12.484375 -16.015625 12.640625 -13.828125 C 12.804688 -11.648438 12.988281 -9.515625 13.1875 -7.421875 C 13.394531 -5.335938 13.566406 -3.566406 13.703125 -2.109375 C 13.796875 -1.523438 13.648438 -1.035156 13.265625 -0.640625 C 12.878906 -0.253906 12.4375 -0.0195312 11.9375 0.0625 C 11.34375 0.15625 10.585938 0.210938 9.671875 0.234375 C 8.765625 0.253906 8.109375 0.265625 7.703125 0.265625 C 7.242188 0.265625 6.660156 0.253906 5.953125 0.234375 C 5.253906 0.210938 4.5 0.132812 3.6875 0 C 3.226562 -0.09375 2.816406 -0.296875 2.453125 -0.609375 C 2.085938 -0.929688 1.90625 -1.363281 1.90625 -1.90625 C 1.90625 -5.863281 1.9375 -9.894531 2 -14 C 2.070312 -18.113281 2.175781 -22.132812 2.3125 -26.0625 C 2.445312 -30 2.601562 -33.671875 2.78125 -37.078125 C 2.96875 -40.492188 3.175781 -43.453125 3.40625 -45.953125 C 3.539062 -46.898438 4.109375 -47.488281 5.109375 -47.71875 C 5.703125 -47.851562 6.316406 -47.929688 6.953125 -47.953125 C 7.585938 -47.984375 8.109375 -48 8.515625 -48 C 8.929688 -48 9.421875 -47.984375 9.984375 -47.953125 C 10.554688 -47.929688 11.273438 -47.851562 12.140625 -47.71875 C 13.679688 -47.539062 14.972656 -46.742188 16.015625 -45.328125 C 16.929688 -43.609375 18 -41.675781 19.21875 -39.53125 C 20.445312 -37.394531 21.71875 -35.25 23.03125 -33.09375 C 24.351562 -30.9375 25.648438 -28.945312 26.921875 -27.125 C 28.203125 -25.3125 29.351562 -23.847656 30.375 -22.734375 C 31.394531 -21.617188 32.222656 -21.0625 32.859375 -21.0625 C 33.628906 -21.0625 34.160156 -21.675781 34.453125 -22.90625 C 34.753906 -24.132812 34.867188 -25.722656 34.796875 -27.671875 C 34.734375 -29.628906 34.550781 -31.722656 34.25 -33.953125 C 33.957031 -36.179688 33.640625 -38.316406 33.296875 -40.359375 C 32.960938 -42.398438 32.679688 -44.101562 32.453125 -45.46875 C 32.359375 -46.101562 32.484375 -46.613281 32.828125 -47 C 33.171875 -47.382812 33.632812 -47.644531 34.21875 -47.78125 C 34.851562 -47.875 35.488281 -47.929688 36.125 -47.953125 C 36.757812 -47.984375 37.375 -48 37.96875 -48 C 38.425781 -48 38.90625 -47.972656 39.40625 -47.921875 C 39.90625 -47.878906 40.472656 -47.8125 41.109375 -47.71875 C 42.203125 -47.488281 42.769531 -46.898438 42.8125 -45.953125 C 43.21875 -41.535156 43.546875 -36.304688 43.796875 -30.265625 C 44.046875 -24.222656 44.148438 -17.566406 44.109375 -10.296875 C 44.109375 -6.253906 43.484375 -3.4375 42.234375 -1.84375 C 40.984375 -0.25 39.359375 0.546875 37.359375 0.546875 Z M 37.359375 0.546875 "/></g></g></g><g fill="#ffffff" fill-opacity="1"><g transform="translate(117.551654, 189.602258)"><g><path d="M 12.75 0.546875 C 9.289062 0.546875 6.503906 -0.269531 4.390625 -1.90625 C 2.285156 -3.539062 1.234375 -6.289062 1.234375 -10.15625 C 1.234375 -13.5625 2.445312 -16.253906 4.875 -18.234375 C 7.300781 -20.210938 10.648438 -21.566406 14.921875 -22.296875 C 18.835938 -22.835938 21.585938 -23.390625 23.171875 -23.953125 C 24.765625 -24.523438 25.5625 -25.425781 25.5625 -26.65625 C 25.5625 -27.382812 25.0625 -28.066406 24.0625 -28.703125 C 23.0625 -29.335938 21.359375 -29.65625 18.953125 -29.65625 C 16.910156 -29.65625 14.796875 -29.335938 12.609375 -28.703125 C 10.429688 -28.066406 8.523438 -27.019531 6.890625 -25.5625 C 6.390625 -24.832031 5.804688 -24.625 5.140625 -24.9375 C 4.484375 -25.257812 4.179688 -25.921875 4.234375 -26.921875 C 4.273438 -27.421875 4.335938 -28.113281 4.421875 -29 C 4.515625 -29.894531 4.617188 -30.796875 4.734375 -31.703125 C 4.847656 -32.609375 4.925781 -33.289062 4.96875 -33.75 C 5.113281 -34.832031 5.570312 -35.535156 6.34375 -35.859375 C 10.113281 -37.035156 14.203125 -37.625 18.609375 -37.625 C 23.835938 -37.625 27.894531 -36.5 30.78125 -34.25 C 33.664062 -32 35.335938 -28.398438 35.796875 -23.453125 C 35.929688 -21.722656 36.066406 -19.582031 36.203125 -17.03125 C 36.335938 -14.488281 36.472656 -11.898438 36.609375 -9.265625 C 36.742188 -6.628906 36.859375 -4.269531 36.953125 -2.1875 C 36.953125 -1 36.316406 -0.289062 35.046875 -0.0625 C 34.585938 0.0703125 34.015625 0.160156 33.328125 0.203125 C 32.648438 0.242188 31.992188 0.265625 31.359375 0.265625 C 30.816406 0.265625 30.125 0.242188 29.28125 0.203125 C 28.4375 0.160156 27.742188 0.0703125 27.203125 -0.0625 C 26.609375 -0.15625 26.128906 -0.414062 25.765625 -0.84375 C 25.398438 -1.28125 25.265625 -1.796875 25.359375 -2.390625 C 25.453125 -2.835938 25.554688 -3.425781 25.671875 -4.15625 C 25.785156 -4.882812 25.863281 -5.613281 25.90625 -6.34375 C 26 -6.976562 25.847656 -7.351562 25.453125 -7.46875 C 25.066406 -7.582031 24.738281 -7.34375 24.46875 -6.75 C 23.425781 -4.519531 21.8125 -2.742188 19.625 -1.421875 C 17.445312 -0.109375 15.15625 0.546875 12.75 0.546875 Z M 17.390625 -7.90625 C 18.523438 -7.90625 19.71875 -8.203125 20.96875 -8.796875 C 22.21875 -9.390625 23.269531 -10.238281 24.125 -11.34375 C 24.988281 -12.457031 25.421875 -13.8125 25.421875 -15.40625 C 25.421875 -16.5 25.09375 -17.394531 24.4375 -18.09375 C 23.78125 -18.800781 22.65625 -19.15625 21.0625 -19.15625 C 19.46875 -19.15625 17.941406 -18.859375 16.484375 -18.265625 C 15.035156 -17.679688 13.859375 -16.875 12.953125 -15.84375 C 12.046875 -14.820312 11.59375 -13.609375 11.59375 -12.203125 C 11.59375 -10.660156 12.046875 -9.554688 12.953125 -8.890625 C 13.859375 -8.234375 15.335938 -7.90625 17.390625 -7.90625 Z M 17.390625 -7.90625 "/></g></g></g><g fill="#ffffff" fill-opacity="1"><g transform="translate(156.069968, 189.602258)"><g><path d="M 20.796875 0.546875 C 18.472656 0.546875 16.367188 0.09375 14.484375 -0.8125 C 12.597656 -1.726562 11.097656 -3.09375 9.984375 -4.90625 C 8.867188 -6.726562 8.289062 -8.976562 8.25 -11.65625 C 8.25 -13.25 8.269531 -15.046875 8.3125 -17.046875 C 8.363281 -19.046875 8.429688 -21.078125 8.515625 -23.140625 C 8.609375 -25.210938 8.75 -27.179688 8.9375 -29.046875 C 8.976562 -29.410156 8.863281 -29.703125 8.59375 -29.921875 C 8.320312 -30.148438 8.023438 -30.265625 7.703125 -30.265625 C 6.878906 -30.265625 6.035156 -30.265625 5.171875 -30.265625 C 4.316406 -30.265625 3.476562 -30.242188 2.65625 -30.203125 C 2.15625 -30.148438 1.722656 -30.316406 1.359375 -30.703125 C 0.992188 -31.097656 0.8125 -31.546875 0.8125 -32.046875 L 0.8125 -35.25 C 0.8125 -35.75 0.992188 -36.175781 1.359375 -36.53125 C 1.722656 -36.894531 2.15625 -37.078125 2.65625 -37.078125 L 7.703125 -37.078125 C 8.523438 -37.078125 8.9375 -37.507812 8.9375 -38.375 C 8.9375 -39.238281 8.957031 -40.132812 9 -41.0625 C 9.039062 -42 9.109375 -42.898438 9.203125 -43.765625 C 9.335938 -44.898438 9.90625 -45.535156 10.90625 -45.671875 C 11.5 -45.765625 12.078125 -45.832031 12.640625 -45.875 C 13.210938 -45.925781 13.769531 -45.953125 14.3125 -45.953125 C 14.90625 -45.953125 15.472656 -45.925781 16.015625 -45.875 C 16.566406 -45.832031 17.132812 -45.765625 17.71875 -45.671875 C 18.175781 -45.628906 18.585938 -45.4375 18.953125 -45.09375 C 19.316406 -44.75 19.453125 -44.304688 19.359375 -43.765625 C 19.316406 -42.859375 19.238281 -41.984375 19.125 -41.140625 C 19.007812 -40.296875 18.953125 -39.398438 18.953125 -38.453125 C 18.953125 -37.535156 19.359375 -37.078125 20.171875 -37.078125 C 21.628906 -37.078125 23.300781 -37.085938 25.1875 -37.109375 C 27.070312 -37.140625 28.71875 -37.175781 30.125 -37.21875 C 30.625 -37.21875 31.054688 -37.035156 31.421875 -36.671875 C 31.785156 -36.304688 31.96875 -35.875 31.96875 -35.375 L 31.96875 -31.703125 C 31.96875 -31.203125 31.785156 -30.757812 31.421875 -30.375 C 31.054688 -29.988281 30.625 -29.816406 30.125 -29.859375 C 29.539062 -29.953125 28.65625 -30.019531 27.46875 -30.0625 C 26.289062 -30.101562 25.109375 -30.144531 23.921875 -30.1875 C 22.742188 -30.238281 21.835938 -30.242188 21.203125 -30.203125 C 19.566406 -30.203125 18.632812 -29.359375 18.40625 -27.671875 C 18.226562 -25.316406 18.140625 -22.796875 18.140625 -20.109375 C 18.140625 -17.429688 18.160156 -15.09375 18.203125 -13.09375 C 18.296875 -11.320312 18.796875 -10.0625 19.703125 -9.3125 C 20.609375 -8.5625 21.722656 -8.1875 23.046875 -8.1875 C 23.585938 -8.1875 24.332031 -8.285156 25.28125 -8.484375 C 26.238281 -8.691406 27.179688 -8.941406 28.109375 -9.234375 C 29.046875 -9.535156 29.71875 -9.820312 30.125 -10.09375 C 30.71875 -10.726562 31.332031 -10.882812 31.96875 -10.5625 C 32.601562 -10.25 32.898438 -9.613281 32.859375 -8.65625 C 32.859375 -7.65625 32.847656 -6.734375 32.828125 -5.890625 C 32.804688 -5.054688 32.796875 -4.179688 32.796875 -3.265625 C 32.742188 -2.222656 32.332031 -1.519531 31.5625 -1.15625 C 30.75 -0.789062 29.671875 -0.472656 28.328125 -0.203125 C 26.984375 0.0664062 25.628906 0.257812 24.265625 0.375 C 22.898438 0.488281 21.742188 0.546875 20.796875 0.546875 Z M 20.796875 0.546875 "/></g></g></g><g fill="#ffffff" fill-opacity="1"><g transform="translate(189.747922, 189.602258)"><g><path d="M 16.765625 0.546875 C 11.585938 0.546875 7.789062 -1.085938 5.375 -4.359375 C 2.96875 -7.628906 1.765625 -12.0625 1.765625 -17.65625 C 1.765625 -20.25 1.84375 -22.90625 2 -25.625 C 2.164062 -28.351562 2.410156 -31.535156 2.734375 -35.171875 C 2.773438 -36.265625 3.316406 -36.925781 4.359375 -37.15625 C 4.910156 -37.25 5.523438 -37.316406 6.203125 -37.359375 C 6.878906 -37.398438 7.378906 -37.421875 7.703125 -37.421875 C 8.160156 -37.421875 8.832031 -37.398438 9.71875 -37.359375 C 10.601562 -37.316406 11.363281 -37.25 12 -37.15625 C 12.457031 -37.0625 12.84375 -36.851562 13.15625 -36.53125 C 13.476562 -36.21875 13.59375 -35.789062 13.5 -35.25 C 13.269531 -33.65625 13.03125 -31.914062 12.78125 -30.03125 C 12.53125 -28.144531 12.328125 -26.289062 12.171875 -24.46875 C 12.015625 -22.65625 11.9375 -21.085938 11.9375 -19.765625 C 11.9375 -16.128906 12.640625 -13.273438 14.046875 -11.203125 C 15.453125 -9.140625 17.722656 -8.109375 20.859375 -8.109375 C 23.316406 -8.109375 25.296875 -9.207031 26.796875 -11.40625 C 28.296875 -13.613281 29.046875 -16.5625 29.046875 -20.25 C 29.046875 -22.25 28.941406 -24.609375 28.734375 -27.328125 C 28.523438 -30.054688 28.195312 -32.671875 27.75 -35.171875 C 27.65625 -35.722656 27.765625 -36.164062 28.078125 -36.5 C 28.398438 -36.84375 28.765625 -37.0625 29.171875 -37.15625 C 29.671875 -37.25 30.328125 -37.316406 31.140625 -37.359375 C 31.960938 -37.398438 32.648438 -37.421875 33.203125 -37.421875 C 33.835938 -37.421875 34.492188 -37.398438 35.171875 -37.359375 C 35.859375 -37.316406 36.492188 -37.25 37.078125 -37.15625 C 38.035156 -37.019531 38.582031 -36.359375 38.71875 -35.171875 C 38.988281 -31.222656 39.191406 -27.757812 39.328125 -24.78125 C 39.472656 -21.800781 39.578125 -19.070312 39.640625 -16.59375 C 39.710938 -14.125 39.734375 -11.71875 39.703125 -9.375 C 39.679688 -7.03125 39.671875 -4.492188 39.671875 -1.765625 C 39.671875 -0.765625 39.21875 -0.15625 38.3125 0.0625 C 37.851562 0.15625 37.316406 0.222656 36.703125 0.265625 C 36.097656 0.316406 35.5 0.34375 34.90625 0.34375 C 34.3125 0.34375 33.671875 0.304688 32.984375 0.234375 C 32.304688 0.171875 31.648438 0.113281 31.015625 0.0625 C 30.566406 -0.0195312 30.191406 -0.234375 29.890625 -0.578125 C 29.597656 -0.921875 29.5 -1.34375 29.59375 -1.84375 C 29.675781 -2.476562 29.726562 -3.085938 29.75 -3.671875 C 29.78125 -4.265625 29.796875 -4.789062 29.796875 -5.25 C 29.796875 -6.019531 29.644531 -6.425781 29.34375 -6.46875 C 29.050781 -6.519531 28.722656 -6.226562 28.359375 -5.59375 C 26.898438 -3.457031 25.226562 -1.898438 23.34375 -0.921875 C 21.457031 0.0546875 19.265625 0.546875 16.765625 0.546875 Z M 16.765625 0.546875 "/></g></g></g><g fill="#ffffff" fill-opacity="1"><g transform="translate(231.129538, 189.602258)"><g><path d="M 6.953125 0.265625 C 6.585938 0.265625 6.019531 0.242188 5.25 0.203125 C 4.476562 0.160156 3.796875 0.09375 3.203125 0 C 2.796875 -0.09375 2.441406 -0.296875 2.140625 -0.609375 C 1.847656 -0.929688 1.703125 -1.363281 1.703125 -1.90625 C 1.703125 -5.863281 1.710938 -9.363281 1.734375 -12.40625 C 1.753906 -15.445312 1.785156 -18.226562 1.828125 -20.75 C 1.878906 -23.28125 1.960938 -25.710938 2.078125 -28.046875 C 2.191406 -30.390625 2.335938 -32.832031 2.515625 -35.375 C 2.660156 -36.375 3.160156 -36.941406 4.015625 -37.078125 C 4.515625 -37.171875 5.101562 -37.238281 5.78125 -37.28125 C 6.46875 -37.332031 7.109375 -37.359375 7.703125 -37.359375 C 8.242188 -37.359375 8.921875 -37.332031 9.734375 -37.28125 C 10.554688 -37.238281 11.175781 -37.171875 11.59375 -37.078125 C 12.132812 -36.992188 12.550781 -36.78125 12.84375 -36.4375 C 13.144531 -36.09375 13.226562 -35.695312 13.09375 -35.25 C 12.863281 -34.382812 12.664062 -33.609375 12.5 -32.921875 C 12.34375 -32.242188 12.265625 -31.453125 12.265625 -30.546875 C 12.265625 -29.859375 12.445312 -29.457031 12.8125 -29.34375 C 13.175781 -29.226562 13.492188 -29.535156 13.765625 -30.265625 C 14.859375 -32.859375 16.414062 -34.722656 18.4375 -35.859375 C 20.457031 -36.992188 22.71875 -37.5625 25.21875 -37.5625 C 26.269531 -37.5625 27.363281 -37.4375 28.5 -37.1875 C 29.632812 -36.9375 30.566406 -36.609375 31.296875 -36.203125 C 32.203125 -35.703125 32.65625 -35 32.65625 -34.09375 C 32.65625 -32.675781 32.644531 -31.363281 32.625 -30.15625 C 32.601562 -28.957031 32.546875 -27.628906 32.453125 -26.171875 C 32.398438 -25.304688 32.046875 -24.785156 31.390625 -24.609375 C 30.734375 -24.429688 30.15625 -24.613281 29.65625 -25.15625 C 28.425781 -26.195312 27.140625 -26.910156 25.796875 -27.296875 C 24.460938 -27.679688 23.113281 -27.875 21.75 -27.875 C 20.0625 -27.875 18.476562 -27.410156 17 -26.484375 C 15.53125 -25.554688 14.335938 -24.21875 13.421875 -22.46875 C 12.515625 -20.71875 12.0625 -18.613281 12.0625 -16.15625 C 12.0625 -14.425781 12.117188 -12.640625 12.234375 -10.796875 C 12.347656 -8.960938 12.472656 -7.257812 12.609375 -5.6875 C 12.742188 -4.125 12.835938 -2.863281 12.890625 -1.90625 C 12.929688 -1.3125 12.78125 -0.851562 12.4375 -0.53125 C 12.101562 -0.21875 11.726562 -0.0195312 11.3125 0.0625 C 10.8125 0.113281 10.140625 0.160156 9.296875 0.203125 C 8.460938 0.242188 7.679688 0.265625 6.953125 0.265625 Z M 6.953125 0.265625 "/></g></g></g><g fill="#ffffff" fill-opacity="1"><g transform="translate(264.943843, 189.602258)"><g><path d="M 12.75 0.546875 C 9.289062 0.546875 6.503906 -0.269531 4.390625 -1.90625 C 2.285156 -3.539062 1.234375 -6.289062 1.234375 -10.15625 C 1.234375 -13.5625 2.445312 -16.253906 4.875 -18.234375 C 7.300781 -20.210938 10.648438 -21.566406 14.921875 -22.296875 C 18.835938 -22.835938 21.585938 -23.390625 23.171875 -23.953125 C 24.765625 -24.523438 25.5625 -25.425781 25.5625 -26.65625 C 25.5625 -27.382812 25.0625 -28.066406 24.0625 -28.703125 C 23.0625 -29.335938 21.359375 -29.65625 18.953125 -29.65625 C 16.910156 -29.65625 14.796875 -29.335938 12.609375 -28.703125 C 10.429688 -28.066406 8.523438 -27.019531 6.890625 -25.5625 C 6.390625 -24.832031 5.804688 -24.625 5.140625 -24.9375 C 4.484375 -25.257812 4.179688 -25.921875 4.234375 -26.921875 C 4.273438 -27.421875 4.335938 -28.113281 4.421875 -29 C 4.515625 -29.894531 4.617188 -30.796875 4.734375 -31.703125 C 4.847656 -32.609375 4.925781 -33.289062 4.96875 -33.75 C 5.113281 -34.832031 5.570312 -35.535156 6.34375 -35.859375 C 10.113281 -37.035156 14.203125 -37.625 18.609375 -37.625 C 23.835938 -37.625 27.894531 -36.5 30.78125 -34.25 C 33.664062 -32 35.335938 -28.398438 35.796875 -23.453125 C 35.929688 -21.722656 36.066406 -19.582031 36.203125 -17.03125 C 36.335938 -14.488281 36.472656 -11.898438 36.609375 -9.265625 C 36.742188 -6.628906 36.859375 -4.269531 36.953125 -2.1875 C 36.953125 -1 36.316406 -0.289062 35.046875 -0.0625 C 34.585938 0.0703125 34.015625 0.160156 33.328125 0.203125 C 32.648438 0.242188 31.992188 0.265625 31.359375 0.265625 C 30.816406 0.265625 30.125 0.242188 29.28125 0.203125 C 28.4375 0.160156 27.742188 0.0703125 27.203125 -0.0625 C 26.609375 -0.15625 26.128906 -0.414062 25.765625 -0.84375 C 25.398438 -1.28125 25.265625 -1.796875 25.359375 -2.390625 C 25.453125 -2.835938 25.554688 -3.425781 25.671875 -4.15625 C 25.785156 -4.882812 25.863281 -5.613281 25.90625 -6.34375 C 26 -6.976562 25.847656 -7.351562 25.453125 -7.46875 C 25.066406 -7.582031 24.738281 -7.34375 24.46875 -6.75 C 23.425781 -4.519531 21.8125 -2.742188 19.625 -1.421875 C 17.445312 -0.109375 15.15625 0.546875 12.75 0.546875 Z M 17.390625 -7.90625 C 18.523438 -7.90625 19.71875 -8.203125 20.96875 -8.796875 C 22.21875 -9.390625 23.269531 -10.238281 24.125 -11.34375 C 24.988281 -12.457031 25.421875 -13.8125 25.421875 -15.40625 C 25.421875 -16.5 25.09375 -17.394531 24.4375 -18.09375 C 23.78125 -18.800781 22.65625 -19.15625 21.0625 -19.15625 C 19.46875 -19.15625 17.941406 -18.859375 16.484375 -18.265625 C 15.035156 -17.679688 13.859375 -16.875 12.953125 -15.84375 C 12.046875 -14.820312 11.59375 -13.609375 11.59375 -12.203125 C 11.59375 -10.660156 12.046875 -9.554688 12.953125 -8.890625 C 13.859375 -8.234375 15.335938 -7.90625 17.390625 -7.90625 Z M 17.390625 -7.90625 "/></g></g></g><path stroke-linecap="butt" transform="matrix(0.75, 0, 0, 0.75, 96.391522, 203.982937)" fill="none" stroke-linejoin="miter" d="M -0.00119623 2.001917 L 242.957153 2.001917 " stroke="#fdf4dc" stroke-width="4" stroke-opacity="1" stroke-miterlimit="4"/><g fill="#ffffff" fill-opacity="1"><g transform="translate(91.193675, 231.476696)"><g><path d="M 7.25 -11.03125 C 6.195312 -11.03125 5.382812 -10.632812 4.8125 -9.84375 C 4.238281 -9.0625 3.953125 -7.960938 3.953125 -6.546875 C 3.953125 -3.609375 5.050781 -2.140625 7.25 -2.140625 C 8.175781 -2.140625 9.296875 -2.375 10.609375 -2.84375 L 10.609375 -0.5 C 9.535156 -0.0390625 8.328125 0.1875 6.984375 0.1875 C 5.078125 0.1875 3.613281 -0.394531 2.59375 -1.5625 C 1.582031 -2.726562 1.078125 -4.394531 1.078125 -6.5625 C 1.078125 -7.9375 1.320312 -9.140625 1.8125 -10.171875 C 2.3125 -11.203125 3.03125 -11.988281 3.96875 -12.53125 C 4.90625 -13.082031 6 -13.359375 7.25 -13.359375 C 8.53125 -13.359375 9.816406 -13.050781 11.109375 -12.4375 L 10.203125 -10.15625 C 9.710938 -10.394531 9.21875 -10.597656 8.71875 -10.765625 C 8.21875 -10.941406 7.726562 -11.03125 7.25 -11.03125 Z M 7.25 -11.03125 "/></g></g></g><g fill="#ffffff" fill-opacity="1"><g transform="translate(102.954311, 231.476696)"><g><path d="M 3.625 -5.0625 C 3.625 -4.0625 3.785156 -3.304688 4.109375 -2.796875 C 4.441406 -2.285156 4.976562 -2.03125 5.71875 -2.03125 C 6.457031 -2.03125 6.984375 -2.28125 7.296875 -2.78125 C 7.617188 -3.289062 7.78125 -4.050781 7.78125 -5.0625 C 7.78125 -6.050781 7.617188 -6.796875 7.296875 -7.296875 C 6.972656 -7.796875 6.441406 -8.046875 5.703125 -8.046875 C 4.972656 -8.046875 4.441406 -7.796875 4.109375 -7.296875 C 3.785156 -6.804688 3.625 -6.0625 3.625 -5.0625 Z M 10.59375 -5.0625 C 10.59375 -3.414062 10.160156 -2.128906 9.296875 -1.203125 C 8.429688 -0.273438 7.226562 0.1875 5.6875 0.1875 C 4.71875 0.1875 3.863281 -0.0234375 3.125 -0.453125 C 2.382812 -0.878906 1.816406 -1.488281 1.421875 -2.28125 C 1.023438 -3.070312 0.828125 -4 0.828125 -5.0625 C 0.828125 -6.707031 1.253906 -7.984375 2.109375 -8.890625 C 2.972656 -9.804688 4.179688 -10.265625 5.734375 -10.265625 C 6.703125 -10.265625 7.554688 -10.050781 8.296875 -9.625 C 9.035156 -9.207031 9.601562 -8.601562 10 -7.8125 C 10.394531 -7.03125 10.59375 -6.113281 10.59375 -5.0625 Z M 10.59375 -5.0625 "/></g></g></g><g fill="#ffffff" fill-opacity="1"><g transform="translate(114.381499, 231.476696)"><g><path d="M 10.734375 0 L 7.984375 0 L 7.984375 -5.890625 C 7.984375 -6.609375 7.851562 -7.148438 7.59375 -7.515625 C 7.34375 -7.878906 6.9375 -8.0625 6.375 -8.0625 C 5.601562 -8.0625 5.046875 -7.804688 4.703125 -7.296875 C 4.359375 -6.785156 4.1875 -5.929688 4.1875 -4.734375 L 4.1875 0 L 1.4375 0 L 1.4375 -10.078125 L 3.546875 -10.078125 L 3.90625 -8.78125 L 4.0625 -8.78125 C 4.363281 -9.269531 4.785156 -9.640625 5.328125 -9.890625 C 5.867188 -10.140625 6.476562 -10.265625 7.15625 -10.265625 C 8.332031 -10.265625 9.222656 -9.945312 9.828125 -9.3125 C 10.429688 -8.675781 10.734375 -7.757812 10.734375 -6.5625 Z M 10.734375 0 "/></g></g></g><g fill="#ffffff" fill-opacity="1"><g transform="translate(126.511622, 231.476696)"><g><path d="M 10.734375 0 L 7.984375 0 L 7.984375 -5.890625 C 7.984375 -6.609375 7.851562 -7.148438 7.59375 -7.515625 C 7.34375 -7.878906 6.9375 -8.0625 6.375 -8.0625 C 5.601562 -8.0625 5.046875 -7.804688 4.703125 -7.296875 C 4.359375 -6.785156 4.1875 -5.929688 4.1875 -4.734375 L 4.1875 0 L 1.4375 0 L 1.4375 -10.078125 L 3.546875 -10.078125 L 3.90625 -8.78125 L 4.0625 -8.78125 C 4.363281 -9.269531 4.785156 -9.640625 5.328125 -9.890625 C 5.867188 -10.140625 6.476562 -10.265625 7.15625 -10.265625 C 8.332031 -10.265625 9.222656 -9.945312 9.828125 -9.3125 C 10.429688 -8.675781 10.734375 -7.757812 10.734375 -6.5625 Z M 10.734375 0 "/></g></g></g><g fill="#ffffff" fill-opacity="1"><g transform="translate(138.641745, 231.476696)"><g><path d="M 5.609375 -8.3125 C 5.023438 -8.3125 4.566406 -8.125 4.234375 -7.75 C 3.910156 -7.382812 3.722656 -6.863281 3.671875 -6.1875 L 7.53125 -6.1875 C 7.519531 -6.863281 7.34375 -7.382812 7 -7.75 C 6.65625 -8.125 6.191406 -8.3125 5.609375 -8.3125 Z M 6 0.1875 C 4.375 0.1875 3.101562 -0.257812 2.1875 -1.15625 C 1.28125 -2.050781 0.828125 -3.320312 0.828125 -4.96875 C 0.828125 -6.65625 1.25 -7.957031 2.09375 -8.875 C 2.9375 -9.800781 4.101562 -10.265625 5.59375 -10.265625 C 7.019531 -10.265625 8.128906 -9.859375 8.921875 -9.046875 C 9.710938 -8.234375 10.109375 -7.113281 10.109375 -5.6875 L 10.109375 -4.359375 L 3.609375 -4.359375 C 3.640625 -3.578125 3.867188 -2.960938 4.296875 -2.515625 C 4.734375 -2.078125 5.34375 -1.859375 6.125 -1.859375 C 6.726562 -1.859375 7.300781 -1.921875 7.84375 -2.046875 C 8.382812 -2.179688 8.953125 -2.382812 9.546875 -2.65625 L 9.546875 -0.53125 C 9.066406 -0.289062 8.550781 -0.113281 8 0 C 7.457031 0.125 6.789062 0.1875 6 0.1875 Z M 6 0.1875 "/></g></g></g><g fill="#ffffff" fill-opacity="1"><g transform="translate(149.546238, 231.476696)"><g><path d="M 5.53125 0.1875 C 2.394531 0.1875 0.828125 -1.535156 0.828125 -4.984375 C 0.828125 -6.691406 1.253906 -8 2.109375 -8.90625 C 2.960938 -9.8125 4.1875 -10.265625 5.78125 -10.265625 C 6.945312 -10.265625 7.988281 -10.035156 8.90625 -9.578125 L 8.09375 -7.453125 C 7.664062 -7.628906 7.265625 -7.769531 6.890625 -7.875 C 6.515625 -7.988281 6.144531 -8.046875 5.78125 -8.046875 C 4.34375 -8.046875 3.625 -7.03125 3.625 -5 C 3.625 -3.03125 4.34375 -2.046875 5.78125 -2.046875 C 6.300781 -2.046875 6.785156 -2.113281 7.234375 -2.25 C 7.691406 -2.394531 8.144531 -2.617188 8.59375 -2.921875 L 8.59375 -0.5625 C 8.144531 -0.28125 7.691406 -0.0859375 7.234375 0.015625 C 6.785156 0.128906 6.21875 0.1875 5.53125 0.1875 Z M 5.53125 0.1875 "/></g></g></g><g fill="#ffffff" fill-opacity="1"><g transform="translate(159.035856, 231.476696)"><g><path d="M 5.6875 -2.015625 C 6.164062 -2.015625 6.742188 -2.117188 7.421875 -2.328125 L 7.421875 -0.28125 C 6.734375 0.03125 5.890625 0.1875 4.890625 0.1875 C 3.796875 0.1875 2.992188 -0.0859375 2.484375 -0.640625 C 1.984375 -1.203125 1.734375 -2.039062 1.734375 -3.15625 L 1.734375 -8.015625 L 0.421875 -8.015625 L 0.421875 -9.171875 L 1.9375 -10.09375 L 2.734375 -12.21875 L 4.484375 -12.21875 L 4.484375 -10.078125 L 7.3125 -10.078125 L 7.3125 -8.015625 L 4.484375 -8.015625 L 4.484375 -3.15625 C 4.484375 -2.757812 4.59375 -2.46875 4.8125 -2.28125 C 5.03125 -2.101562 5.320312 -2.015625 5.6875 -2.015625 Z M 5.6875 -2.015625 "/></g></g></g><g fill="#ffffff" fill-opacity="1"><g transform="translate(167.047509, 231.476696)"><g/></g></g><g fill="#ffffff" fill-opacity="1"><g transform="translate(171.841881, 231.476696)"><g><path d="M 9.71875 0 L 8.953125 -3.515625 L 7.90625 -7.96875 L 7.84375 -7.96875 L 6 0 L 3.046875 0 L 0.1875 -10.078125 L 2.921875 -10.078125 L 4.078125 -5.609375 C 4.265625 -4.816406 4.457031 -3.71875 4.65625 -2.3125 L 4.703125 -2.3125 C 4.722656 -2.757812 4.828125 -3.484375 5.015625 -4.484375 L 5.15625 -5.25 L 6.40625 -10.078125 L 9.4375 -10.078125 L 10.609375 -5.25 C 10.640625 -5.113281 10.675781 -4.914062 10.71875 -4.65625 C 10.769531 -4.394531 10.820312 -4.117188 10.875 -3.828125 C 10.925781 -3.535156 10.96875 -3.25 11 -2.96875 C 11.039062 -2.695312 11.066406 -2.476562 11.078125 -2.3125 L 11.125 -2.3125 C 11.175781 -2.738281 11.269531 -3.328125 11.40625 -4.078125 C 11.550781 -4.835938 11.65625 -5.347656 11.71875 -5.609375 L 12.921875 -10.078125 L 15.609375 -10.078125 L 12.71875 0 Z M 9.71875 0 "/></g></g></g><g fill="#ffffff" fill-opacity="1"><g transform="translate(187.639884, 231.476696)"><g><path d="M 1.328125 -12.671875 C 1.328125 -13.566406 1.820312 -14.015625 2.8125 -14.015625 C 3.8125 -14.015625 4.3125 -13.566406 4.3125 -12.671875 C 4.3125 -12.242188 4.1875 -11.910156 3.9375 -11.671875 C 3.6875 -11.441406 3.3125 -11.328125 2.8125 -11.328125 C 1.820312 -11.328125 1.328125 -11.773438 1.328125 -12.671875 Z M 4.1875 0 L 1.4375 0 L 1.4375 -10.078125 L 4.1875 -10.078125 Z M 4.1875 0 "/></g></g></g><g fill="#ffffff" fill-opacity="1"><g transform="translate(193.272375, 231.476696)"><g><path d="M 5.6875 -2.015625 C 6.164062 -2.015625 6.742188 -2.117188 7.421875 -2.328125 L 7.421875 -0.28125 C 6.734375 0.03125 5.890625 0.1875 4.890625 0.1875 C 3.796875 0.1875 2.992188 -0.0859375 2.484375 -0.640625 C 1.984375 -1.203125 1.734375 -2.039062 1.734375 -3.15625 L 1.734375 -8.015625 L 0.421875 -8.015625 L 0.421875 -9.171875 L 1.9375 -10.09375 L 2.734375 -12.21875 L 4.484375 -12.21875 L 4.484375 -10.078125 L 7.3125 -10.078125 L 7.3125 -8.015625 L 4.484375 -8.015625 L 4.484375 -3.15625 C 4.484375 -2.757812 4.59375 -2.46875 4.8125 -2.28125 C 5.03125 -2.101562 5.320312 -2.015625 5.6875 -2.015625 Z M 5.6875 -2.015625 "/></g></g></g><g fill="#ffffff" fill-opacity="1"><g transform="translate(201.284028, 231.476696)"><g><path d="M 10.734375 0 L 7.984375 0 L 7.984375 -5.890625 C 7.984375 -7.335938 7.445312 -8.0625 6.375 -8.0625 C 5.601562 -8.0625 5.046875 -7.800781 4.703125 -7.28125 C 4.359375 -6.757812 4.1875 -5.910156 4.1875 -4.734375 L 4.1875 0 L 1.4375 0 L 1.4375 -14.015625 L 4.1875 -14.015625 L 4.1875 -11.15625 C 4.1875 -10.9375 4.164062 -10.414062 4.125 -9.59375 L 4.0625 -8.78125 L 4.203125 -8.78125 C 4.816406 -9.769531 5.789062 -10.265625 7.125 -10.265625 C 8.3125 -10.265625 9.207031 -9.945312 9.8125 -9.3125 C 10.425781 -8.675781 10.734375 -7.757812 10.734375 -6.5625 Z M 10.734375 0 "/></g></g></g><g fill="#ffffff" fill-opacity="1"><g transform="translate(213.414151, 231.476696)"><g/></g></g><g fill="#ffffff" fill-opacity="1"><g transform="translate(218.208523, 231.476696)"><g><path d="M 13.34375 0 L 9.796875 0 L 4.0625 -9.96875 L 3.984375 -9.96875 C 4.097656 -8.207031 4.15625 -6.953125 4.15625 -6.203125 L 4.15625 0 L 1.65625 0 L 1.65625 -13.171875 L 5.1875 -13.171875 L 10.90625 -3.3125 L 10.96875 -3.3125 C 10.875 -5.019531 10.828125 -6.226562 10.828125 -6.9375 L 10.828125 -13.171875 L 13.34375 -13.171875 Z M 13.34375 0 "/></g></g></g><g fill="#ffffff" fill-opacity="1"><g transform="translate(233.213471, 231.476696)"><g><path d="M 7.84375 0 L 7.3125 -1.375 L 7.234375 -1.375 C 6.773438 -0.789062 6.300781 -0.382812 5.8125 -0.15625 C 5.320312 0.0703125 4.679688 0.1875 3.890625 0.1875 C 2.921875 0.1875 2.160156 -0.0859375 1.609375 -0.640625 C 1.054688 -1.203125 0.78125 -1.992188 0.78125 -3.015625 C 0.78125 -4.078125 1.148438 -4.863281 1.890625 -5.375 C 2.640625 -5.882812 3.769531 -6.164062 5.28125 -6.21875 L 7.03125 -6.265625 L 7.03125 -6.71875 C 7.03125 -7.738281 6.503906 -8.25 5.453125 -8.25 C 4.648438 -8.25 3.707031 -8.003906 2.625 -7.515625 L 1.71875 -9.375 C 2.875 -9.976562 4.15625 -10.28125 5.5625 -10.28125 C 6.914062 -10.28125 7.953125 -9.984375 8.671875 -9.390625 C 9.398438 -8.804688 9.765625 -7.914062 9.765625 -6.71875 L 9.765625 0 Z M 7.03125 -4.671875 L 5.96875 -4.625 C 5.164062 -4.601562 4.566406 -4.457031 4.171875 -4.1875 C 3.785156 -3.925781 3.59375 -3.523438 3.59375 -2.984375 C 3.59375 -2.210938 4.035156 -1.828125 4.921875 -1.828125 C 5.566406 -1.828125 6.078125 -2.007812 6.453125 -2.375 C 6.835938 -2.738281 7.03125 -3.226562 7.03125 -3.84375 Z M 7.03125 -4.671875 "/></g></g></g><g fill="#ffffff" fill-opacity="1"><g transform="translate(244.361293, 231.476696)"><g><path d="M 5.6875 -2.015625 C 6.164062 -2.015625 6.742188 -2.117188 7.421875 -2.328125 L 7.421875 -0.28125 C 6.734375 0.03125 5.890625 0.1875 4.890625 0.1875 C 3.796875 0.1875 2.992188 -0.0859375 2.484375 -0.640625 C 1.984375 -1.203125 1.734375 -2.039062 1.734375 -3.15625 L 1.734375 -8.015625 L 0.421875 -8.015625 L 0.421875 -9.171875 L 1.9375 -10.09375 L 2.734375 -12.21875 L 4.484375 -12.21875 L 4.484375 -10.078125 L 7.3125 -10.078125 L 7.3125 -8.015625 L 4.484375 -8.015625 L 4.484375 -3.15625 C 4.484375 -2.757812 4.59375 -2.46875 4.8125 -2.28125 C 5.03125 -2.101562 5.320312 -2.015625 5.6875 -2.015625 Z M 5.6875 -2.015625 "/></g></g></g><g fill="#ffffff" fill-opacity="1"><g transform="translate(252.372937, 231.476696)"><g><path d="M 8.578125 0 L 8.203125 -1.28125 L 8.0625 -1.28125 C 7.769531 -0.8125 7.351562 -0.445312 6.8125 -0.1875 C 6.269531 0.0625 5.65625 0.1875 4.96875 0.1875 C 3.78125 0.1875 2.882812 -0.128906 2.28125 -0.765625 C 1.6875 -1.398438 1.390625 -2.3125 1.390625 -3.5 L 1.390625 -10.078125 L 4.140625 -10.078125 L 4.140625 -4.1875 C 4.140625 -3.457031 4.265625 -2.910156 4.515625 -2.546875 C 4.773438 -2.191406 5.1875 -2.015625 5.75 -2.015625 C 6.519531 -2.015625 7.078125 -2.269531 7.421875 -2.78125 C 7.765625 -3.289062 7.9375 -4.140625 7.9375 -5.328125 L 7.9375 -10.078125 L 10.6875 -10.078125 L 10.6875 0 Z M 8.578125 0 "/></g></g></g><g fill="#ffffff" fill-opacity="1"><g transform="translate(264.50305, 231.476696)"><g><path d="M 7.0625 -10.265625 C 7.4375 -10.265625 7.742188 -10.238281 7.984375 -10.1875 L 7.78125 -7.609375 C 7.5625 -7.660156 7.289062 -7.6875 6.96875 -7.6875 C 6.09375 -7.6875 5.410156 -7.460938 4.921875 -7.015625 C 4.429688 -6.566406 4.1875 -5.9375 4.1875 -5.125 L 4.1875 0 L 1.4375 0 L 1.4375 -10.078125 L 3.515625 -10.078125 L 3.921875 -8.375 L 4.0625 -8.375 C 4.375 -8.945312 4.796875 -9.40625 5.328125 -9.75 C 5.859375 -10.09375 6.4375 -10.265625 7.0625 -10.265625 Z M 7.0625 -10.265625 "/></g></g></g><g fill="#ffffff" fill-opacity="1"><g transform="translate(272.88418, 231.476696)"><g><path d="M 5.609375 -8.3125 C 5.023438 -8.3125 4.566406 -8.125 4.234375 -7.75 C 3.910156 -7.382812 3.722656 -6.863281 3.671875 -6.1875 L 7.53125 -6.1875 C 7.519531 -6.863281 7.34375 -7.382812 7 -7.75 C 6.65625 -8.125 6.191406 -8.3125 5.609375 -8.3125 Z M 6 0.1875 C 4.375 0.1875 3.101562 -0.257812 2.1875 -1.15625 C 1.28125 -2.050781 0.828125 -3.320312 0.828125 -4.96875 C 0.828125 -6.65625 1.25 -7.957031 2.09375 -8.875 C 2.9375 -9.800781 4.101562 -10.265625 5.59375 -10.265625 C 7.019531 -10.265625 8.128906 -9.859375 8.921875 -9.046875 C 9.710938 -8.234375 10.109375 -7.113281 10.109375 -5.6875 L 10.109375 -4.359375 L 3.609375 -4.359375 C 3.640625 -3.578125 3.867188 -2.960938 4.296875 -2.515625 C 4.734375 -2.078125 5.34375 -1.859375 6.125 -1.859375 C 6.726562 -1.859375 7.300781 -1.921875 7.84375 -2.046875 C 8.382812 -2.179688 8.953125 -2.382812 9.546875 -2.65625 L 9.546875 -0.53125 C 9.066406 -0.289062 8.550781 -0.113281 8 0 C 7.457031 0.125 6.789062 0.1875 6 0.1875 Z M 6 0.1875 "/></g></g></g></svg>